HIERARCHY
ROOT Hips
{
	OFFSET 0.000000 0.000000 0.000000
	CHANNELS 6 Xposition Yposition Zposition Zrotation Yrotation Xrotation 
	JOINT LHipJoint
	{
		OFFSET 0.000000 0.000000 0.000000
		CHANNELS 3 Zrotation Yrotation Xrotation
		JOINT LeftUpLeg
		{
			OFFSET 1.363060 -1.794630 0.839290
			CHANNELS 3 Zrotation Yrotation Xrotation
			JOINT LeftLeg
			{
				OFFSET 2.448110 -6.726130 0.000000
				CHANNELS 3 Zrotation Yrotation Xrotation
				JOINT LeftFoot
				{
					OFFSET 2.562200 -7.039590 0.000000
					CHANNELS 3 Zrotation Yrotation Xrotation
					JOINT LeftToeBase
					{
						OFFSET 0.157640 -0.433110 2.322550
						CHANNELS 3 Zrotation Yrotation Xrotation
						End Site
						{
							OFFSET 0.000000 0.000000 0.000000
						}
					}
				}
			}
		}
	}
	JOINT RHipJoint
	{
		OFFSET 0.000000 0.000000 0.000000
		CHANNELS 3 Zrotation Yrotation Xrotation
		JOINT RightUpLeg
		{
			OFFSET -1.305520 -1.794630 0.839290
			CHANNELS 3 Zrotation Yrotation Xrotation
			JOINT RightLeg
			{
				OFFSET -2.542530 -6.985550 0.000000
				CHANNELS 3 Zrotation Yrotation Xrotation
				JOINT RightFoot
				{
					OFFSET -2.568260 -7.056230 0.000000
					CHANNELS 3 Zrotation Yrotation Xrotation
					JOINT RightToeBase
					{
						OFFSET -0.164730 -0.452590 2.363150
						CHANNELS 3 Zrotation Yrotation Xrotation
						End Site
						{
							OFFSET 0.000000 0.000000 0.000000
						}
					}
				}
			}
		}
	}
	JOINT LowerBack
	{
		OFFSET 0.000000 0.000000 0.000000
		CHANNELS 3 Zrotation Yrotation Xrotation
		JOINT Spine
		{
			OFFSET 0.028270 2.035590 -0.193380
			CHANNELS 3 Zrotation Yrotation Xrotation
			JOINT Spine1
			{
				OFFSET 0.056720 2.048850 -0.042750
				CHANNELS 3 Zrotation Yrotation Xrotation
				JOINT Neck
				{
					OFFSET 0.000000 0.000000 0.000000
					CHANNELS 3 Zrotation Yrotation Xrotation
					JOINT Neck1
					{
						OFFSET -0.054170 1.746240 0.172020
						CHANNELS 3 Zrotation Yrotation Xrotation
						JOINT Head
						{
							OFFSET 0.104070 1.761360 -0.123970
							CHANNELS 3 Zrotation Yrotation Xrotation
							End Site
							{
								OFFSET 0.000000 0.000000 0.000000
							}
						}
					}
				}
				JOINT LeftShoulder
				{
					OFFSET 0.000000 0.000000 0.000000
					CHANNELS 3 Zrotation Yrotation Xrotation
					JOINT LeftArm
					{
						OFFSET 3.362410 1.200890 -0.311210
						CHANNELS 3 Zrotation Yrotation Xrotation
						JOINT LeftForeArm
						{
							OFFSET 4.983000 -0.000000 -0.000000
							CHANNELS 3 Zrotation Yrotation Xrotation
							JOINT LeftHand
							{
								OFFSET 3.483560 -0.000000 -0.000000
								CHANNELS 3 Zrotation Yrotation Xrotation
								JOINT LeftFingerBase
								{
									OFFSET 0.000000 0.000000 0.000000
									CHANNELS 3 Zrotation Yrotation Xrotation
									JOINT LeftHandIndex1
									{
										OFFSET 0.715260 -0.000000 -0.000000
										CHANNELS 3 Zrotation Yrotation Xrotation
										End Site
										{
											OFFSET 0.000000 0.000000 0.000000
										}
									}
								}
								JOINT LThumb
								{
									OFFSET 0.000000 0.000000 0.000000
									CHANNELS 3 Zrotation Yrotation Xrotation
									End Site
									{
										OFFSET 0.000000 0.000000 0.000000
									}
								}
							}
						}
					}
				}
				JOINT RightShoulder
				{
					OFFSET 0.000000 0.000000 0.000000
					CHANNELS 3 Zrotation Yrotation Xrotation
					JOINT RightArm
					{
						OFFSET -3.136600 1.374050 -0.404650
						CHANNELS 3 Zrotation Yrotation Xrotation
						JOINT RightForeArm
						{
							OFFSET -5.241900 -0.000000 -0.000000
							CHANNELS 3 Zrotation Yrotation Xrotation
							JOINT RightHand
							{
								OFFSET -3.444170 -0.000000 -0.000000
								CHANNELS 3 Zrotation Yrotation Xrotation
								JOINT RightFingerBase
								{
									OFFSET 0.000000 0.000000 0.000000
									CHANNELS 3 Zrotation Yrotation Xrotation
									JOINT RightHandIndex1
									{
										OFFSET -0.622530 -0.000000 -0.000000
										CHANNELS 3 Zrotation Yrotation Xrotation
										End Site
										{
											OFFSET 0.000000 0.000000 0.000000
										}
									}
								}
								JOINT RThumb
								{
									OFFSET 0.000000 0.000000 0.000000
									CHANNELS 3 Zrotation Yrotation Xrotation
									End Site
									{
										OFFSET 0.000000 0.000000 0.000000
									}
								}
							}
						}
					}
				}
			}
		}
	}
}
MOTION
Frames: 12
Frame Time: 0.008333
-8.197195 16.866264 -1.791336 101.889670 87.345832 125.653787 -7.579016 1.971576 5.340914 -13.487368 -8.863572 -44.886464 -2.784534 0.358347 27.831137 1.487429 4.107210 -13.122656 -0.430900 0.000000 -46.559700 12.649022 -4.407829 0.336742 1.217899 -12.136472 -1.970613 0.119071 -1.346717 20.642494 -0.620575 13.458432 38.017683 9.685899 -0.000000 -72.048000 -5.992476 0.378549 -6.230187 -2.207071 0.655318 -4.493398 -6.208631 0.646267 -1.149516 11.416882 -6.919043 -9.227468 -2.645047 -0.173816 -0.571287 0.000000 0.000000 0.000000 2.103710 10.743917 3.306347 -54.691672 10.531745 -8.516331 -0.323356 -82.797535 -0.045536 11.807516 1.332692 0.119870 -0.238633 0.216305 0.000000 0.000000 0.000000 0.000000 0.000000 0.000000 0.000000 9.666499 2.075299 0.717147 65.886371 20.440930 18.369131 179.435167 83.805456 -179.920535 10.241887 6.310226 0.631505 -0.213285 -0.572857 -0.000000 0.000000 0.000000 0.000000 0.000000 0.000000 0.000000 
-7.970613 16.791637 -1.803133 106.950862 87.302902 130.128372 -7.694575 2.048145 5.202661 -13.488716 -8.829288 -44.604502 -2.610453 0.648463 30.536154 1.454282 3.957299 -13.504839 -0.479600 -0.000000 -44.742600 12.681484 -4.332128 0.109762 0.737283 -13.155287 -1.893600 0.015820 -1.405923 22.783597 -0.704960 13.318219 38.199801 9.652200 -0.000000 -70.781500 -6.017158 0.338971 -5.892957 -2.197622 0.622151 -4.439477 -6.227174 0.609405 -1.223944 11.779880 -6.944688 -9.148574 -2.648638 -0.174570 -0.550555 0.000000 0.000000 0.000000 1.826894 10.635142 3.199631 -55.695741 9.783109 -8.153949 -0.342701 -82.314158 -0.049420 12.574165 1.540916 0.150752 -0.239311 0.216898 0.000000 0.000000 0.000000 0.000000 0.000000 0.000000 0.000000 9.999305 1.961650 0.713562 65.670626 19.986106 17.527170 179.484660 84.206869 -179.925691 9.549645 6.693747 0.622009 -0.196982 -0.578923 -0.000000 0.000000 0.000000 0.000000 0.000000 0.000000 0.000000 
-7.743574 16.723930 -1.814469 111.390203 87.175331 134.021080 -7.809240 2.122211 5.090664 -13.543934 -8.835860 -44.134556 -2.459225 0.885982 32.958161 1.450216 3.914696 -14.062153 -0.552300 -0.000001 -42.582600 12.709491 -4.235824 -0.121225 0.191501 -14.197879 -2.008389 -0.092691 -1.467870 25.075808 -0.805168 12.643285 38.171893 9.221100 0.000000 -69.729399 -6.066370 0.282882 -5.580255 -2.189784 0.575658 -4.384803 -6.239491 0.558674 -1.280609 12.117612 -6.998630 -9.068950 -2.645439 -0.174764 -0.529108 0.000000 0.000000 0.000000 1.486919 10.563832 3.083103 -56.726720 8.793242 -7.684664 -0.370207 -81.659451 -0.052957 13.243161 1.718780 0.179428 -0.239038 0.218145 0.000000 0.000000 0.000000 0.000000 0.000000 0.000000 0.000000 10.294308 1.786416 0.685858 65.564035 19.462299 16.685824 179.550193 84.776596 -179.932244 8.698295 7.082039 0.597122 -0.177517 -0.583240 -0.000000 0.000000 0.000000 0.000000 0.000000 0.000000 0.000000 
-7.515561 16.665268 -1.824934 114.823313 86.974747 136.960914 -7.910478 2.192757 5.007188 -13.661936 -8.885875 -43.461358 -2.341677 1.062448 34.972649 1.476675 3.984508 -14.788221 -0.652000 -0.000000 -40.301400 12.739982 -4.120488 -0.347191 -0.409777 -15.217949 -2.324414 -0.202121 -1.535046 27.488468 -0.920317 11.430551 37.887779 8.390300 -0.000001 -68.888601 -6.141101 0.211305 -5.302597 -2.185137 0.516713 -4.331257 -6.246440 0.495435 -1.317711 12.434337 -7.083414 -8.991592 -2.634894 -0.174354 -0.507830 0.000000 0.000000 0.000000 1.089633 10.533265 2.956776 -57.778587 7.581343 -7.095557 -0.404442 -80.856843 -0.056078 13.794128 1.857916 0.203602 -0.237880 0.220182 0.000000 0.000000 0.000000 0.000000 0.000000 0.000000 0.000000 10.553538 1.552281 0.637928 65.573819 18.865957 15.851773 179.627367 85.500258 -179.939825 7.731288 7.431794 0.555033 -0.156052 -0.584844 -0.000000 0.000000 0.000000 0.000000 0.000000 0.000000 0.000000 
-7.286131 16.617382 -1.834389 117.081080 86.729058 138.787191 -7.989597 2.260022 4.950391 -13.840812 -8.966583 -42.587431 -2.263216 1.176049 36.505277 1.533044 4.160793 -15.664639 -0.782000 0.000000 -38.093899 12.776557 -3.988116 -0.557111 -1.041978 -16.159610 -2.841826 -0.308206 -1.609874 29.985428 -1.047309 9.731699 37.299256 7.204800 -0.000000 -68.185000 -6.232544 0.128709 -5.069138 -2.183305 0.448636 -4.281247 -6.249046 0.423334 -1.336031 12.734686 -7.198766 -8.917282 -2.617260 -0.173395 -0.486942 0.000000 0.000000 0.000000 0.641961 10.536637 2.820607 -58.848884 6.190270 -6.381989 -0.443366 -79.946601 -0.058742 14.215337 1.952881 0.221276 -0.235957 0.223081 0.000000 0.000000 0.000000 0.000000 0.000000 0.000000 0.000000 10.781715 1.267251 0.576515 65.693852 18.199143 15.030786 179.710920 86.354740 -179.947963 6.700274 7.698919 0.496937 -0.133824 -0.582963 -0.000000 0.000000 0.000000 0.000000 0.000000 0.000000 0.000000 
-7.054969 16.581465 -1.843192 118.235695 86.480778 139.577708 -8.047035 2.322827 4.915636 -14.056698 -9.049807 -41.533456 -2.223195 1.229450 37.527111 1.615913 4.426082 -16.656549 -0.943400 0.000000 -36.135800 12.814517 -3.843491 -0.738300 -1.656567 -16.957202 -3.554272 -0.407432 -1.694504 32.523275 -1.181340 7.644887 36.372062 5.751700 -0.000000 -67.530400 -6.316794 0.042869 -4.888800 -2.180436 0.376684 -4.238224 -6.247994 0.347601 -1.340343 13.020516 -7.339291 -8.843258 -2.593541 -0.172060 -0.465536 0.000000 0.000000 0.000000 0.148649 10.552307 2.674874 -59.939021 4.691320 -5.551861 -0.484096 -78.988623 -0.060925 14.503750 2.000961 0.231353 -0.233402 0.226830 0.000000 0.000000 0.000000 0.000000 0.000000 0.000000 0.000000 10.981394 0.946199 0.510340 65.905513 17.462230 14.226876 179.795347 87.308430 -179.956137 5.661904 7.842759 0.427023 -0.112043 -0.577092 -0.000000 0.000000 0.000000 0.000000 0.000000 0.000000 0.000000 
-6.822022 16.558043 -1.851314 118.296422 86.260217 139.335086 -8.082322 2.380995 4.894571 -14.297329 -9.112206 -40.304078 -2.218292 1.226454 38.029398 1.721244 4.766988 -17.709744 -1.135000 0.000000 -34.541300 12.852936 -3.689808 -0.884975 -2.231420 -17.570282 -4.442530 -0.497586 -1.791485 35.064297 -1.315868 5.331841 35.084344 4.167800 0.000000 -66.769300 -6.386030 -0.040740 -4.757900 -2.175583 0.305523 -4.201746 -6.242922 0.273068 -1.330698 13.298460 -7.506015 -8.771529 -2.564579 -0.170394 -0.444400 0.000000 0.000000 0.000000 -0.367626 10.579256 2.519496 -61.059820 3.124017 -4.604361 -0.524648 -78.025360 -0.062673 14.666050 1.998119 0.232835 -0.230426 0.231594 0.000000 0.000000 0.000000 0.000000 0.000000 0.000000 0.000000 11.162684 0.595591 0.447124 66.181141 16.676582 13.451617 179.876233 88.327801 -179.963816 4.669758 7.829338 0.351391 -0.091678 -0.567036 -0.000000 0.000000 0.000000 0.000000 0.000000 0.000000 0.000000 
-6.587273 16.547086 -1.859518 117.466311 86.108027 138.259752 -8.107011 2.430701 4.879562 -14.519899 -9.119113 -38.928411 -2.239973 1.173005 38.041282 1.840760 5.155342 -18.760296 -1.349400 -0.000000 -33.363300 12.880879 -3.536725 -0.988260 -2.709346 -17.950331 -5.489913 -0.577746 -1.901582 37.562910 -1.444997 2.947610 33.459743 2.586800 -0.000000 -65.891400 -6.407793 -0.115112 -4.678391 -2.162252 0.239151 -4.174624 -6.233370 0.203438 -1.315747 13.566618 -7.688551 -8.696140 -2.532048 -0.168647 -0.421730 0.000000 0.000000 0.000000 -0.895643 10.583519 2.355837 -62.218332 1.573898 -3.561039 -0.561411 -77.127982 -0.064031 14.714526 1.945963 0.225925 -0.227140 0.237379 0.000000 0.000000 0.000000 0.000000 0.000000 0.000000 0.000000 11.324429 0.233710 0.395269 66.487301 15.844766 12.710236 179.949532 89.371801 -179.970680 3.776515 7.634281 0.277336 -0.073588 -0.552883 -0.000000 0.000000 0.000000 0.000000 0.000000 0.000000 0.000000 
-6.350941 16.548050 -1.867893 115.759922 86.041320 136.355982 -8.127472 2.470442 4.862443 -14.703768 -9.051370 -37.417505 -2.279406 1.074909 37.598891 1.966095 5.572317 -19.734341 -1.575000 0.000000 -32.598200 12.895890 -3.390770 -1.047014 -3.072280 -18.085330 -6.674811 -0.647984 -2.025060 39.986466 -1.562165 0.659720 31.537122 1.140900 0.000000 -64.786000 -6.371980 -0.178447 -4.641874 -2.138297 0.178529 -4.155594 -6.218501 0.139763 -1.297379 13.828373 -7.885726 -8.617917 -2.497259 -0.166896 -0.397981 0.000000 0.000000 0.000000 -1.408544 10.559461 2.184737 -63.423035 0.078014 -2.427857 -0.592124 -76.339470 -0.065106 14.667488 1.845974 0.211225 -0.223733 0.244361 0.000000 0.000000 0.000000 0.000000 0.000000 0.000000 0.000000 11.473790 -0.134243 0.360154 66.789024 14.988148 12.017993 0.013083 89.598046 0.023711 3.024615 7.244267 0.211356 -0.058287 -0.534954 -0.000000 0.000000 0.000000 0.000000 0.000000 0.000000 0.000000 
-6.113212 16.559896 -1.876886 113.243838 86.073775 133.683682 -8.155338 2.497709 4.837048 -14.818271 -8.889847 -35.795671 -2.325865 0.939462 36.760536 2.086236 5.992576 -20.558244 -1.795000 0.000000 -32.209200 12.891927 -3.260484 -1.060122 -3.290800 -17.971023 -7.978795 -0.708887 -2.159885 42.301001 -1.662899 -1.414215 29.390709 -0.083800 -0.000000 -63.510600 -6.259233 -0.230586 -4.642756 -2.099299 0.122112 -4.144844 -6.197565 0.080383 -1.281523 14.081733 -8.089753 -8.533674 -2.461827 -0.165312 -0.372279 0.000000 0.000000 0.000000 -1.886093 10.486024 2.008146 -64.675192 -1.312619 -1.222811 -0.614114 -75.709370 -0.066002 14.544840 1.703368 0.189937 -0.220307 0.252649 0.000000 0.000000 0.000000 0.000000 0.000000 0.000000 0.000000 11.610374 -0.498257 0.345852 67.052750 14.115378 11.384922 0.065438 88.621065 0.019527 2.450044 6.658705 0.158054 -0.046162 -0.513727 -0.000000 0.000000 0.000000 0.000000 0.000000 0.000000 0.000000 
-5.874305 16.581326 -1.886620 109.906548 86.202486 130.224625 -8.200265 2.511624 4.799270 -14.844545 -8.625794 -34.086316 -2.369595 0.774842 35.592743 2.190311 6.394198 -21.165642 -1.989800 -0.000000 -32.141500 12.865651 -3.151874 -1.030639 -3.352856 -17.627208 -9.384167 -0.760727 -2.303198 44.481906 -1.743401 -3.194951 27.096673 -1.042700 -0.000000 -62.055500 -6.060786 -0.275313 -4.672796 -2.042712 0.065349 -4.140895 -6.169941 0.020774 -1.270260 14.325115 -8.296367 -8.443712 -2.426992 -0.163966 -0.344808 0.000000 0.000000 0.000000 -2.307258 10.358701 1.828065 -65.969373 -2.579672 0.045659 -0.626006 -75.266655 -0.066837 14.365753 1.526292 0.163661 -0.216995 0.262383 -0.000000 0.000000 0.000000 0.000000 0.000000 0.000000 0.000000 11.734702 -0.854818 0.353406 67.249074 13.239479 10.821765 0.106232 87.731386 0.016856 2.078015 5.888239 0.119429 -0.037386 -0.489743 -0.000000 0.000000 0.000000 0.000000 0.000000 0.000000 0.000000 
-5.634430 16.610816 -1.897183 105.743614 86.416122 125.971680 -8.273274 2.512128 4.747559 -14.766255 -8.254196 -32.320691 -2.402121 0.590454 34.172350 2.267673 6.753329 -21.505041 -2.139700 -0.000000 -32.341000 12.811912 -3.069453 -0.961935 -3.246085 -17.082646 -10.873736 -0.803515 -2.449957 46.500266 -1.803821 -4.663992 24.755586 -1.741100 -0.000000 -60.723500 -5.769135 -0.318411 -4.726441 -1.966097 0.001732 -4.143989 -6.135257 -0.045770 -1.270421 14.553133 -8.494799 -8.343277 -2.394406 -0.163042 -0.314167 0.000000 0.000000 0.000000 -2.655681 10.150353 1.647710 -67.291260 -3.686404 1.351257 -0.626210 -75.046038 -0.067695 14.144182 1.325620 0.134499 -0.213751 0.273630 -0.000000 0.000000 0.000000 0.000000 0.000000 0.000000 0.000000 11.842271 -1.195937 0.383743 67.356146 12.359281 10.328527 0.135541 86.958873 0.015702 1.926915 4.954674 0.094183 -0.032095 -0.463582 -0.000000 0.000000 0.000000 0.000000 0.000000 0.000000 0.000000 
